<svg width="49" height="48" viewBox="0 0 49 48" fill="none" xmlns="http://www.w3.org/2000/svg">
<path d="M24.5 4C13.478 4 4.5 12.978 4.5 24C4.5 35.022 13.478 44 24.5 44C35.522 44 44.5 35.022 44.5 24C44.5 12.978 35.522 4 24.5 4ZM24.5 8C33.3602 8 40.5 15.1398 40.5 24C40.5 32.0289 34.6306 38.626 26.9375 39.7969V28.7695H31.5938L32.3242 24.0391H26.9375V21.4531C26.9375 19.4871 27.578 17.7422 29.418 17.7422H32.3711V13.6133C31.8511 13.5433 30.7537 13.3906 28.6797 13.3906C24.3477 13.3906 21.8086 15.6786 21.8086 20.8906V24.0391H17.3555V28.7695H21.8086V39.7578C14.2406 38.4817 8.5 31.9405 8.5 24C8.5 15.1398 15.6398 8 24.5 8Z" fill="#064635"/>
</svg>
