<svg width="49" height="48" viewBox="0 0 49 48" fill="none" xmlns="http://www.w3.org/2000/svg">
<path d="M16.5 6C10.986 6 6.5 10.486 6.5 16V32C6.5 37.514 10.986 42 16.5 42H32.5C38.014 42 42.5 37.514 42.5 32V16C42.5 10.486 38.014 6 32.5 6H16.5ZM16.5 10H32.5C35.808 10 38.5 12.692 38.5 16V32C38.5 35.308 35.808 38 32.5 38H16.5C13.192 38 10.5 35.308 10.5 32V16C10.5 12.692 13.192 10 16.5 10ZM34.5 12C33.9696 12 33.4609 12.2107 33.0858 12.5858C32.7107 12.9609 32.5 13.4696 32.5 14C32.5 14.5304 32.7107 15.0391 33.0858 15.4142C33.4609 15.7893 33.9696 16 34.5 16C35.0304 16 35.5391 15.7893 35.9142 15.4142C36.2893 15.0391 36.5 14.5304 36.5 14C36.5 13.4696 36.2893 12.9609 35.9142 12.5858C35.5391 12.2107 35.0304 12 34.5 12ZM24.5 14C18.986 14 14.5 18.486 14.5 24C14.5 29.514 18.986 34 24.5 34C30.014 34 34.5 29.514 34.5 24C34.5 18.486 30.014 14 24.5 14ZM24.5 18C27.808 18 30.5 20.692 30.5 24C30.5 27.308 27.808 30 24.5 30C21.192 30 18.5 27.308 18.5 24C18.5 20.692 21.192 18 24.5 18Z" fill="#064635"/>
</svg>
