<svg width="49" height="48" viewBox="0 0 49 48" fill="none" xmlns="http://www.w3.org/2000/svg">
<path d="M24.5 8C24.5 8 11.9911 7.99994 8.87109 8.83594C7.14909 9.29594 5.79594 10.6511 5.33594 12.3711C4.49994 15.4911 4.5 24 4.5 24C4.5 24 4.49994 32.5089 5.33594 35.6289C5.79594 37.3509 7.15109 38.7041 8.87109 39.1641C11.9911 40.0001 24.5 40 24.5 40C24.5 40 37.0089 40.0001 40.1289 39.1641C41.8489 38.7041 43.2041 37.3489 43.6641 35.6289C44.5001 32.5089 44.5 24 44.5 24C44.5 24 44.5001 15.4911 43.6641 12.3711C43.2041 10.6511 41.8489 9.29594 40.1289 8.83594C37.0089 7.99994 24.5 8 24.5 8ZM24.5 12C30.264 12 37.4818 12.2672 39.0938 12.6992C39.4318 12.7892 39.7088 13.0662 39.8008 13.4062C40.2828 15.2023 40.5 20.684 40.5 24C40.5 27.316 40.2828 32.7957 39.8008 34.5938C39.7108 34.9317 39.4338 35.2088 39.0938 35.3008C37.4837 35.7328 30.264 36 24.5 36C18.738 36 11.5202 35.7328 9.90625 35.3008C9.56825 35.2108 9.29122 34.9338 9.19922 34.5938C8.71722 32.7978 8.5 27.316 8.5 24C8.5 20.684 8.71722 15.2023 9.19922 13.4023C9.28922 13.0663 9.56625 12.7892 9.90625 12.6992C11.5163 12.2672 18.736 12 24.5 12ZM20.5 17.0703V30.9297L32.5 24L20.5 17.0703Z" fill="#064635"/>
</svg>
