<svg width="49" height="48" viewBox="0 0 49 48" fill="none" xmlns="http://www.w3.org/2000/svg">
<path d="M40.6667 16H34.6667V8H6.66675C4.46675 8 2.66675 9.8 2.66675 12V34H6.66675C6.66675 37.32 9.34675 40 12.6667 40C15.9867 40 18.6667 37.32 18.6667 34H30.6667C30.6667 37.32 33.3467 40 36.6667 40C39.9867 40 42.6667 37.32 42.6667 34H46.6667V24L40.6667 16ZM39.6667 19L43.5867 24H34.6667V19H39.6667ZM12.6667 36C11.5667 36 10.6667 35.1 10.6667 34C10.6667 32.9 11.5667 32 12.6667 32C13.7667 32 14.6667 32.9 14.6667 34C14.6667 35.1 13.7667 36 12.6667 36ZM17.1067 30C16.0067 28.78 14.4467 28 12.6667 28C10.8867 28 9.32675 28.78 8.22675 30H6.66675V12H30.6667V30H17.1067ZM36.6667 36C35.5667 36 34.6667 35.1 34.6667 34C34.6667 32.9 35.5667 32 36.6667 32C37.7667 32 38.6667 32.9 38.6667 34C38.6667 35.1 37.7667 36 36.6667 36Z" fill="#E8F3F5"/>
</svg>
